<svg xmlns="http://www.w3.org/2000/svg" viewBox="0 0 1024 1024" role="img" aria-labelledby="title desc">
  <title id="title">AutoColor for Calendar app icon</title>
  <desc id="desc">A rounded calendar with colored event squares and a magic wand sparkle.</desc>
  <defs>
    <linearGradient id="headerGradient" x1="210" y1="210" x2="780" y2="350" gradientUnits="userSpaceOnUse">
      <stop offset="0" stop-color="#6c82ff"/>
      <stop offset="1" stop-color="#7895ff"/>
    </linearGradient>
    <linearGradient id="pageGradient" x1="235" y1="360" x2="770" y2="760" gradientUnits="userSpaceOnUse">
      <stop offset="0" stop-color="#f7f9ff"/>
      <stop offset="1" stop-color="#eef3f9"/>
    </linearGradient>
    <linearGradient id="wandGradient" x1="540" y1="835" x2="760" y2="600" gradientUnits="userSpaceOnUse">
      <stop offset="0" stop-color="#4b5366"/>
      <stop offset="1" stop-color="#262b38"/>
    </linearGradient>
    <filter id="blueGlow" x="-30%" y="-30%" width="160%" height="160%">
      <feGaussianBlur stdDeviation="36" result="blur"/>
      <feColorMatrix in="blur" type="matrix" values="0 0 0 0 0.36 0 0 0 0 0.46 0 0 0 0 1 0 0 0 .62 0"/>
      <feBlend in="SourceGraphic" mode="screen"/>
    </filter>
    <filter id="colorGlow" x="-75%" y="-75%" width="250%" height="250%">
      <feGaussianBlur stdDeviation="28" result="blur"/>
      <feBlend in="blur" in2="SourceGraphic" mode="screen"/>
    </filter>
    <filter id="shadow" x="-25%" y="-25%" width="150%" height="150%">
      <feDropShadow dx="0" dy="12" stdDeviation="20" flood-color="#151820" flood-opacity=".28"/>
    </filter>
  </defs>

  <rect width="1024" height="1024" fill="none"/>

  <g filter="url(#blueGlow)">
    <path d="M200 356V270c0-38 31-69 69-69h486c38 0 69 31 69 69v86H200z" fill="url(#headerGradient)"/>
  </g>
  <path d="M200 356h624v355c0 46-37 83-83 83H283c-46 0-83-37-83-83V356z" fill="url(#pageGradient)" opacity=".9" filter="url(#shadow)"/>
  <path d="M200 356h624v355c0 46-37 83-83 83H283c-46 0-83-37-83-83V356z" fill="none" stroke="#ffffff" stroke-width="4" opacity=".65"/>

  <g opacity=".88">
    <circle cx="349" cy="263" r="43" fill="#6f7db7" opacity=".32"/>
    <circle cx="636" cy="263" r="43" fill="#6f7db7" opacity=".32"/>
    <rect x="326" y="150" width="46" height="135" rx="23" fill="#303642" stroke="#10131c" stroke-width="2"/>
    <rect x="613" y="150" width="46" height="135" rx="23" fill="#303642" stroke="#10131c" stroke-width="2"/>
  </g>

  <g>
    <rect x="254" y="409" width="89" height="90" rx="12" fill="#ffffff" stroke="#e6e9ee"/>
    <rect x="381" y="409" width="89" height="90" rx="12" fill="#ffffff" stroke="#e6e9ee"/>
    <rect x="508" y="409" width="89" height="90" rx="12" fill="#ffffff" stroke="#e6e9ee"/>
    <rect x="635" y="409" width="92" height="90" rx="12" fill="#ff5579" stroke="#ff2e63" filter="url(#colorGlow)"/>

    <rect x="254" y="529" width="89" height="86" rx="12" fill="#ffffff" stroke="#e6e9ee"/>
    <rect x="381" y="529" width="89" height="86" rx="12" fill="#ffc42f" stroke="#ffa800" filter="url(#colorGlow)"/>
    <rect x="508" y="529" width="89" height="86" rx="12" fill="#55cd89" stroke="#21ad65" filter="url(#colorGlow)"/>
    <rect x="635" y="529" width="92" height="86" rx="12" fill="#ffffff" stroke="#e6e9ee"/>

    <rect x="254" y="644" width="89" height="89" rx="12" fill="#55a0ff" stroke="#2576f2" filter="url(#colorGlow)"/>
    <rect x="381" y="644" width="89" height="89" rx="12" fill="#ffffff" stroke="#e6e9ee"/>
    <rect x="508" y="644" width="89" height="89" rx="12" fill="#9b6bea" stroke="#7b43d8" filter="url(#colorGlow)"/>
  </g>

  <g>
    <path d="M708 647l51-51 19 51 51 51-51 19-51 51-19-51-51-51z" fill="#ffca30" stroke="#ffb300" stroke-width="2" filter="url(#colorGlow)"/>
    <path d="M827 556l24 30 30 24-30 24-24 30-24-30-30-24 30-24z" fill="#5bd28e" stroke="#22b86d" stroke-width="2" opacity=".9"/>
    <path d="M829 663l23 27 27 23-27 23-23 27-23-27-27-23 27-23z" fill="#9a69ed" stroke="#7e48db" stroke-width="2" opacity=".9"/>
    <path d="M744 724l24 26 26 24-26 24-24 26-24-26-26-24 26-24z" fill="#7590ff" stroke="#5975ef" stroke-width="2" opacity=".9"/>
  </g>

  <g transform="rotate(-45 640 745)">
    <rect x="536" y="707" width="205" height="55" rx="27.5" fill="url(#wandGradient)" stroke="#111723" stroke-width="2"/>
    <line x1="735" y1="735" x2="802" y2="735" stroke="#202839" stroke-width="8" stroke-linecap="round"/>
    <line x1="797" y1="735" x2="831" y2="735" stroke="#ffffff" stroke-width="3" stroke-linecap="round" opacity=".65"/>
  </g>
</svg>
